<?xml version="1.0" ?><svg viewBox="0 0 64 64" xmlns="http://www.w3.org/2000/svg"><g id="Glyph"><g  id="Glyph-2"><path d="M44,2A17.94,17.94,0,0,0,30.89,7.7,24,24,0,0,0,25,7C14.35,7,5.92,14.16,4,24.84l-2,12a1,1,0,0,0,.23.81A1,1,0,0,0,3,38H8V51a1,1,0,0,0,1,1H24v9a1,1,0,0,0,1,1H44a1,1,0,0,0,1-1V38A18,18,0,0,0,44,2ZM17,44H10V42h7a1,1,0,0,1,0,2ZM16,32.5c-2.76,0-5-1.79-5-4a1,1,0,0,1,2,0c0,1.08,1.37,2,3,2s3-.92,3-2a1,1,0,0,1,2,0C21,30.71,18.76,32.5,16,32.5ZM44,36A16,16,0,1,1,60,20,16,16,0,0,1,44,36Z"/><path d="M53,12.71H49.22a3.95,3.95,0,1,0-7.73,0H37.71a1,1,0,0,0-1,1v3.78a3.94,3.94,0,1,0,0,7.73V29a1,1,0,0,0,1,1h4.76a1,1,0,0,0,1-1.18,2.71,2.71,0,0,1,0-.41,1.94,1.94,0,1,1,3.88,0,1.84,1.84,0,0,1,0,.41,1,1,0,0,0,1,1.18H53a1,1,0,0,0,1-1V24.24a1,1,0,0,0-1.18-1,1.84,1.84,0,0,1-.41,0,1.94,1.94,0,1,1,0-3.88,2.71,2.71,0,0,1,.41,0,1,1,0,0,0,1.18-1V13.71A1,1,0,0,0,53,12.71Z"/></g></g></svg>