<?xml version="1.0" ?><svg viewBox="0 0 64 64" xmlns="http://www.w3.org/2000/svg"><g id="Glyph"><g  id="Glyph-2"><path d="M44,2A17.94,17.94,0,0,0,30.89,7.7,24,24,0,0,0,25,7C14.35,7,5.92,14.16,4,24.84l-2,12a1,1,0,0,0,.23.81A1,1,0,0,0,3,38H8V51a1,1,0,0,0,1,1H24v9a1,1,0,0,0,1,1H44a1,1,0,0,0,1-1V38A18,18,0,0,0,44,2ZM17,44H10V42h7a1,1,0,0,1,0,2ZM16,32.5c-2.76,0-5-1.79-5-4a1,1,0,0,1,2,0c0,1.08,1.37,2,3,2s3-.92,3-2a1,1,0,0,1,2,0C21,30.71,18.76,32.5,16,32.5ZM44,36A16,16,0,1,1,60,20,16,16,0,0,1,44,36Z"/><path d="M52.51,17.2A9.51,9.51,0,0,0,52,16l1.63-2a1,1,0,0,0-.07-1.33l-2.15-2.15a1,1,0,0,0-1.33-.07L48,12a9,9,0,0,0-1.24-.51l-.29-2.6a1,1,0,0,0-1-.89h-3a1,1,0,0,0-1,.89l-.29,2.6A9,9,0,0,0,40,12l-2-1.63a1,1,0,0,0-1.33.07l-2.15,2.15a1,1,0,0,0-.07,1.33L36,16a9,9,0,0,0-.51,1.24l-2.6.29a1,1,0,0,0-.89,1v3a1,1,0,0,0,.89,1l2.6.29A9,9,0,0,0,36,24l-1.63,2a1,1,0,0,0,.07,1.33l2.15,2.15a1,1,0,0,0,1.33.07L40,28a9,9,0,0,0,1.24.51l.29,2.6a1,1,0,0,0,1,.89h3a1,1,0,0,0,1-.89l.29-2.6A9,9,0,0,0,48,28l2,1.63a1,1,0,0,0,1.33-.07l2.15-2.15a1,1,0,0,0,.07-1.33L52,24a9.51,9.51,0,0,0,.51-1.24l2.6-.29a1,1,0,0,0,.89-1v-3a1,1,0,0,0-.89-1ZM44,25a5,5,0,1,1,5-5A5,5,0,0,1,44,25Z"/><circle cx="44" cy="20" r="3"/></g></g></svg>