<?xml version="1.0" ?><svg viewBox="0 0 64 64" xmlns="http://www.w3.org/2000/svg"><g id="Glyph"><g  id="Glyph-2"><path d="M44,2A17.94,17.94,0,0,0,30.89,7.7,24,24,0,0,0,25,7C14.35,7,5.92,14.16,4,24.84l-2,12a1,1,0,0,0,.23.81A1,1,0,0,0,3,38H8V51a1,1,0,0,0,1,1H24v9a1,1,0,0,0,1,1H44a1,1,0,0,0,1-1V38A18,18,0,0,0,44,2ZM10,46V44c2.24,0,6-.39,6-3a1,1,0,0,1,2,0C18,42.5,17.22,46,10,46ZM20,32.5a1,1,0,0,1-1-1c0-1.08-1.37-2-3-2s-3,.92-3,2a1,1,0,0,1-2,0c0-2.21,2.24-4,5-4s5,1.79,5,4A1,1,0,0,1,20,32.5ZM44,36A16,16,0,1,1,60,20,16,16,0,0,1,44,36Z"/><path d="M45.63,8.29a2.15,2.15,0,0,0-3.26,0L37,15.12a2.08,2.08,0,0,0,1.63,3.38H40V28a4,4,0,0,0,8,0V18.5h1.42a2.08,2.08,0,0,0,1.63-3.38Z"/></g></g></svg>