<?xml version="1.0" ?><svg viewBox="0 0 64 64" xmlns="http://www.w3.org/2000/svg"><g id="Glyph"><g  id="Glyph-2"><path d="M44,2A17.94,17.94,0,0,0,30.89,7.7,24,24,0,0,0,25,7C14.35,7,5.92,14.16,4,24.84l-2,12a1,1,0,0,0,.23.81A1,1,0,0,0,3,38H8V51a1,1,0,0,0,1,1H24v9a1,1,0,0,0,1,1H44a1,1,0,0,0,1-1V38A18,18,0,0,0,44,2ZM17,44H10V42h7a1,1,0,0,1,0,2ZM16,32.5c-2.76,0-5-1.79-5-4a1,1,0,0,1,2,0c0,1.08,1.37,2,3,2s3-.92,3-2a1,1,0,0,1,2,0C21,30.71,18.76,32.5,16,32.5ZM44,36A16,16,0,1,1,60,20,16,16,0,0,1,44,36Z"/><path d="M51.06,16.8a7.07,7.07,0,0,0-5.31.23,9.13,9.13,0,0,1,2.46,4.19A7.16,7.16,0,0,0,51.06,16.8Z"/><path d="M44,24.59a9.22,9.22,0,0,1-2.48-.34A7.06,7.06,0,0,0,44,29.05a7.06,7.06,0,0,0,2.48-4.8A9.22,9.22,0,0,1,44,24.59Z"/><path d="M52.89,17.75a9.2,9.2,0,0,1-4.37,5.65,9.21,9.21,0,0,1-2.77,6.76C53.7,33.58,59.79,22.85,52.89,17.75Z"/><path d="M46.38,22.18a7.16,7.16,0,0,0-2.38-4,7.16,7.16,0,0,0-2.38,4A7.07,7.07,0,0,0,46.38,22.18Z"/><path d="M36.94,16.8a7.16,7.16,0,0,0,2.85,4.42A9.13,9.13,0,0,1,42.25,17,7.07,7.07,0,0,0,36.94,16.8Z"/><path d="M39.48,23.4a9.2,9.2,0,0,1-4.37-5.65c-6.9,5.11-.8,15.83,7.14,12.41A9.21,9.21,0,0,1,39.48,23.4Z"/><path d="M44,15.67a9.26,9.26,0,0,1,7.16-.94,7.19,7.19,0,0,0-14.32,0A9.26,9.26,0,0,1,44,15.67Z"/></g></g></svg>