<?xml version="1.0" ?><svg viewBox="0 0 64 64" xmlns="http://www.w3.org/2000/svg"><g id="Glyph"><g  id="Glyph-2"><path d="M44,2A17.94,17.94,0,0,0,30.89,7.7,24,24,0,0,0,25,7C14.35,7,5.92,14.16,4,24.84l-2,12a1,1,0,0,0,.23.81A1,1,0,0,0,3,38H8V51a1,1,0,0,0,1,1H24v9a1,1,0,0,0,1,1H44a1,1,0,0,0,1-1V38A18,18,0,0,0,44,2ZM18.83,44.55A1,1,0,0,1,18,45a.94.94,0,0,1-.55-.17L15,43.2l-2.45,1.63a1,1,0,0,1-1.11,0l-1.44-1v-2.4l2,1.33,2.44-1.63a1,1,0,0,1,1.11,0l3,2A1,1,0,0,1,18.83,44.55Zm-.32-12.41a1,1,0,0,1-1,1.72l-5-3a1,1,0,0,1,0-1.72l5-3a1,1,0,0,1,1,1.72L14.94,30ZM44,36A16,16,0,1,1,60,20,16,16,0,0,1,44,36Z"/><path d="M44,7.07c-3.33,0-7.14,2.38-7.62,7.6-.24,2.5-2,12.23-2,12.33a1,1,0,0,0,1,1h1.36c.42,0,.6.17,1.06.69a3.09,3.09,0,0,0,5.13,0c.79-1,1.32-1,2.11,0a3.09,3.09,0,0,0,5.13,0c.46-.52.65-.69,1.07-.69h1.36a1,1,0,0,0,1-1c0-.1-1.75-9.83-2-12.33C51.14,9.45,47.33,7.07,44,7.07ZM41,18a1,1,0,1,1,1-1A1,1,0,0,1,41,18Zm6,0a1,1,0,1,1,1-1A1,1,0,0,1,47,18Z"/></g></g></svg>