<?xml version="1.0" ?><svg viewBox="0 0 64 64" xmlns="http://www.w3.org/2000/svg"><g id="Glyph"><g  id="Glyph-2"><path d="M44,2A17.94,17.94,0,0,0,30.89,7.7,24,24,0,0,0,25,7C14.35,7,5.92,14.16,4,24.84l-2,12a1,1,0,0,0,.23.81A1,1,0,0,0,3,38H8V51a1,1,0,0,0,1,1H24v9a1,1,0,0,0,1,1H44a1,1,0,0,0,1-1V38A18,18,0,0,0,44,2ZM10,46V44c2.24,0,6-.39,6-3a1,1,0,0,1,2,0C18,42.5,17.22,46,10,46Zm6-13.5c-2.76,0-5-1.79-5-4a1,1,0,0,1,2,0c0,1.08,1.37,2,3,2s3-.92,3-2a1,1,0,0,1,2,0C21,30.71,18.76,32.5,16,32.5ZM44,36A16,16,0,1,1,60,20,16,16,0,0,1,44,36Z"/><path d="M50.58,12.05A4.1,4.1,0,0,0,46.45,8,4.33,4.33,0,0,0,44,8.71,4.33,4.33,0,0,0,41.55,8a4.1,4.1,0,0,0-4.13,4c-.09,3,1.81,5.55,5.58,7.57V31a1,1,0,0,0,1,1h4a1,1,0,0,0,0-2H45V28h2a1,1,0,0,0,0-2H45V19.59C48.77,17.57,50.67,15,50.58,12.05Z"/></g></g></svg>